OpenSim_Sub06_CSStiffKnee_RCS.mot
version=1
nRows=74
nColumns=11
inDegrees=no
endheader
time	Top_Thigh	Med_Thigh	Bot_Thigh	Top_Shank	2nd_Top_Shank	2nd_Bot_Shank	Bot_Shank	BNOx	BNOy	BNOZ
35.82000000	1666.90680978	1960.32639742	1560.63650839	1200.14123560	1266.45974104	1021.71524512	1120.37142171	110.73422833	-67.43079371	122.09579139
35.83000000	1669.49966082	1960.29401125	1560.64667450	1200.08017230	1265.71578770	1022.49483709	1120.37380114	111.53241786	-67.44368652	120.78360388
35.84000000	1671.84893737	1960.13940214	1560.54196574	1199.99778501	1264.96819354	1023.24432819	1120.30938138	112.29192956	-67.47101932	119.47871494
35.85000000	1673.82175698	1959.85595935	1560.36495179	1199.93476252	1264.23392747	1023.94224677	1120.20475614	112.98071499	-67.49113189	118.23353830
35.86000000	1675.28523720	1959.43707215	1560.15820232	1199.93179364	1263.52995837	1024.56712120	1120.08651912	113.56672573	-67.48236397	117.10048770
35.87000000	1676.10686854	1958.87613213	1559.96421657	1200.02941846	1262.87323574	1025.09753078	1119.98122296	114.01800027	-67.42310416	116.13184628
35.88000000	1676.23321059	1958.16702355	1559.81055917	1200.23665292	1262.27659943	1025.52285893	1119.90671232	114.32100311	-67.30209514	115.35221138
35.89000000	1675.78723646	1957.30473000	1559.69147363	1200.49217834	1261.74371999	1025.85659438	1119.86140318	114.50330969	-67.13118085	114.72440964
35.90000000	1674.91578919	1956.28438376	1559.59669491	1200.72515933	1261.27702735	1026.11548748	1119.84108271	114.59805799	-66.92533102	114.20290974
35.91000000	1673.76571179	1955.10111714	1559.51595799	1200.86476047	1260.87895140	1026.31628856	1119.84153808	114.63838601	-66.69951534	113.74218034
35.92000000	1672.48384728	1953.75006243	1559.43899782	1200.84014637	1260.55192208	1026.47574799	1119.85855643	114.65743173	-66.46870354	113.29669010
35.93000000	1671.21703870	1952.22635195	1559.35554937	1200.58048163	1260.29836928	1026.61061611	1119.88792495	114.68833314	-66.24786533	112.82090771
35.94000000	1670.11212907	1950.52511799	1559.25534759	1200.01493085	1260.12072292	1026.73764325	1119.92543080	114.76422825	-66.05197041	112.26930182
35.95000000	1669.31596140	1948.64149285	1559.12812744	1199.07265862	1260.02141292	1026.87357979	1119.96686113	114.91825503	-65.89598851	111.59634110
35.96000000	1668.97498539	1946.57086240	1558.96373705	1197.68315376	1260.00279492	1027.03513383	1120.00799775	115.18345484	-65.79484224	110.75663359
35.97000000	1669.15226193	1944.36236829	1558.77601211	1195.84464115	1260.05147958	1027.23006279	1120.04348505	115.57237957	-65.75347220	109.73433098
35.98000000	1669.72480060	1942.18508845	1558.63230786	1193.70870482	1260.11894844	1027.44615387	1120.06542972	116.05186644	-65.75454773	108.57950083
35.99000000	1670.54443697	1940.22432894	1558.60722106	1191.44767930	1260.15192982	1027.66849216	1120.06559510	116.58256720	-65.77772471	107.35112955
36	1671.46300662	1938.66539585	1558.77534848	1189.23389915	1260.09715206	1027.88216275	1120.03574449	117.12513356	-65.80265903	106.10820353
36.01000000	1672.33415325	1937.69059673	1559.20980207	1187.23720552	1259.90188982	1028.07229741	1119.96785454	117.64066096	-65.80924604	104.90895498
36.02000000	1673.08181021	1937.36567182	1559.92597258	1185.53050956	1259.53465639	1028.22584279	1119.86219451	118.10749288	-65.78668989	103.78229589
36.03000000	1673.72121967	1937.60493620	1560.86426878	1184.06080690	1258.99155482	1028.33210310	1119.72980602	118.52637871	-65.73628716	102.71905036
36.04000000	1674.27372608	1938.31258500	1561.96008827	1182.76667802	1258.27053198	1028.38054012	1119.58245066	118.89956524	-65.66014259	101.70749696
36.05000000	1674.76067392	1939.39281332	1563.14882868	1181.58670339	1257.36953478	1028.36061563	1119.43189001	119.22929926	-65.56036095	100.73591431
36.06000000	1675.20340767	1940.74981628	1564.36588762	1180.45946351	1256.28651012	1028.26179139	1119.28988564	119.51782757	-65.43904698	99.79258099
36.07000000	1675.62327179	1942.28778899	1565.54666268	1179.32353885	1255.01940490	1028.07352919	1119.16819914	119.76739697	-65.29830542	98.86577560
36.08000000	1676.04161076	1943.91092655	1566.62655150	1178.11750989	1253.56616601	1027.78529081	1119.07859207	119.98025425	-65.14024104	97.94377673
36.09000000	1676.47976905	1945.52342408	1567.54095168	1176.77995711	1251.92474035	1027.38653801	1119.03282602	120.15864621	-64.96695857	97.01486299
36.10000000	1676.95909113	1947.02947670	1568.22526082	1175.24946099	1250.09307482	1026.86673258	1119.04266257	120.30481964	-64.78056277	96.06731296
36.11000000	1677.50092147	1948.33327950	1568.61487655	1173.46460202	1248.06911632	1026.21533628	1119.11986329	120.42102134	-64.58315838	95.08940523
36.12000000	1678.12660455	1949.33902761	1568.64519647	1171.36396068	1245.85081174	1025.42181091	1119.27618977	120.50949811	-64.37685017	94.06941842
36.13000000	1678.85748483	1949.95091614	1568.25161819	1168.88611744	1243.43610798	1024.47561822	1119.52340358	120.57249674	-64.16374286	92.99563110
36.14000000	1679.71490679	1950.07314019	1567.36953933	1165.96965279	1240.82295194	1023.36622001	1119.87326629	120.61226403	-63.94594123	91.85632189
36.15000000	1680.71193383	1949.62425773	1565.94794815	1162.57019915	1238.01792653	1022.08715689	1120.33275669	120.63212199	-63.72439479	90.64123359
36.16000000	1681.77613882	1948.67110324	1564.07613759	1158.81942668	1235.11676944	1020.67407805	1120.85947772	120.64649279	-63.48812706	89.35522517
36.17000000	1682.78465979	1947.36798642	1561.92617282	1154.95285833	1232.26781495	1019.18747443	1121.38190325	120.67634710	-63.21912586	88.01207329
36.18000000	1683.61398292	1945.87034755	1559.67118882	1151.20735935	1229.62007709	1017.68815805	1121.82813066	120.74274021	-62.89928805	86.62566988
36.19000000	1684.14059438	1944.33362693	1557.48432059	1147.81979499	1227.32256994	1016.23694095	1122.12625731	120.86672741	-62.51051050	85.20990687
36.20000000	1684.24098034	1942.91326483	1555.53870311	1145.02703048	1225.52430756	1014.89463514	1122.20438059	121.06936402	-62.03469010	83.77867617
36.21000000	1683.79162697	1941.76470156	1554.00747137	1143.06593108	1224.37430399	1013.72205267	1121.99059786	121.37170534	-61.45372370	82.34586971
36.22000000	1682.66902044	1941.04337739	1553.06376035	1142.17336202	1224.02157331	1012.78000554	1121.41300652	121.79480665	-60.74950819	80.92537943
36.23000000	1680.74964693	1940.90473262	1552.88070505	1142.58618855	1224.61512957	1012.12930579	1120.39970392	122.35972326	-59.90394043	79.53109724
36.24000000	1677.92914501	1941.48728646	1553.60632010	1144.51648563	1226.28790774	1011.82572600	1118.88999934	123.08442620	-58.90207324	78.17583664
36.25000000	1674.30087526	1942.75487133	1555.12928736	1147.92040289	1229.00684854	1011.87301345	1116.93894938	123.95504551	-57.76154013	76.86127788
36.26000000	1670.07484363	1944.56826382	1557.18529626	1152.60310774	1232.64096496	1012.24422330	1114.66989532	124.93892683	-56.51919549	75.58253321
36.27000000	1665.46256371	1946.78690858	1559.50805883	1158.36781617	1237.05800432	1012.91201403	1112.20706104	126.00317298	-55.21214213	74.33462994
36.28000000	1660.67554908	1949.27025020	1561.83128709	1165.01774418	1242.12571389	1013.84904408	1109.67467040	127.11488679	-53.87748287	73.11259543
36.29000000	1655.92531331	1951.87773332	1563.88869308	1172.35610776	1247.71184100	1015.02797193	1107.19694726	128.24117109	-52.55232051	71.91145701
36.30000000	1651.42336999	1954.46880256	1565.41398882	1180.18612289	1253.68413293	1016.42145605	1104.89811549	129.34912871	-51.27375787	70.72624203
36.31000000	1647.38123269	1956.90290254	1566.14088633	1188.31100558	1259.91033698	1018.00215490	1102.90239895	130.40586247	-50.07889777	69.55197782
36.32000000	1644.01041500	1959.03947789	1565.80309765	1196.53397181	1266.25820046	1019.74272694	1101.33402152	131.37847522	-49.00484301	68.38369172
36.33000000	1641.52243049	1960.73797321	1564.13433480	1204.65823758	1272.59547067	1021.61583064	1100.31720705	132.23406977	-48.08869640	67.21641108
36.34000000	1640.12879274	1961.85783314	1560.86830980	1212.48701887	1278.78989491	1023.59412447	1099.97617941	132.93974896	-47.36756076	66.04516323
36.35000000	1639.98913854	1962.28642274	1555.81502806	1219.81806086	1284.69572327	1025.63752049	1100.40286756	133.46816921	-46.87527303	64.86739122
36.36000000	1640.87970271	1962.11745667	1549.34835074	1226.40867598	1290.06745314	1027.61172681	1101.45052092	133.83303154	-46.62153320	63.69839168
36.37000000	1642.40487817	1961.53713606	1542.09486081	1231.99805454	1294.61487244	1029.34022910	1102.86541205	134.06643324	-46.60522308	62.56146326
36.38000000	1644.16824728	1960.73209832	1534.68233332	1236.32530140	1298.04755819	1030.64631385	1104.39330890	134.20055839	-46.82517340	61.47994237
36.39000000	1645.77339238	1959.88898083	1527.73854331	1239.12952143	1300.07508741	1031.35326754	1105.77997940	134.26759109	-47.28021491	60.47716542
36.40000000	1646.82389584	1959.19442101	1521.89126586	1240.14981946	1300.40703712	1031.28437666	1106.77119149	134.29971539	-47.96917838	59.57646880
36.41000000	1646.94882461	1958.82448050	1517.73261985	1239.15580435	1298.78923377	1030.28176775	1107.12602514	134.32558333	-48.89026746	58.80311649
36.42000000	1646.15857125	1958.79697659	1515.32120261	1236.37351520	1295.50990252	1028.46947039	1106.80274742	134.32099689	-50.03230280	58.21121461
36.43000000	1644.75707342	1959.00790970	1514.30490547	1232.38035197	1291.27480817	1026.18852362	1105.91296004	134.22107397	-51.37688196	57.87707202
36.44000000	1643.05581981	1959.35014672	1514.32105495	1227.76275290	1286.80045606	1023.78554877	1104.57220900	133.95988593	-52.90541670	57.87756873
36.45000000	1641.36629911	1959.71655452	1515.00697761	1223.10715617	1282.80335155	1021.60716713	1102.89604031	133.47150415	-54.59931879	58.28958472
36.46000000	1640.00000000	1960.00000000	1516.00000000	1219.00000000	1280.00000000	1020.00000000	1101.00000000	132.69000000	-56.44000000	59.19000000
36.47000000	1639.19020621	1960.09304532	1516.93681825	1215.86490218	1278.89142177	1019.21105186	1098.99518513	131.57010406	-58.40346924	60.64491473
36.48000000	1638.85738161	1959.88703383	1517.45160690	1213.47419880	1279.11669725	1019.08885982	1096.97489708	130.14918377	-60.44412405	62.67730973
36.49000000	1638.84378510	1959.27300416	1517.17791008	1211.43740554	1280.09942187	1019.38234415	1095.02798828	128.48526579	-62.51095912	65.29938600
36.50000000	1638.99167559	1958.14199495	1515.74927193	1209.36403809	1281.26319104	1019.84042515	1093.24331116	126.63637675	-64.55296916	68.52334453
36.51000000	1639.14331201	1956.38504483	1512.79923658	1206.86361213	1282.03160016	1020.21202307	1091.70971815	124.66054332	-66.51914885	72.36138631
36.52000000	1639.14095324	1953.89319245	1507.96134816	1203.54564332	1281.82824464	1020.24605822	1090.51606171	122.61579214	-68.35849289	76.82571233
36.53000000	1638.82898634	1950.56129334	1500.88217922	1199.02883192	1280.08842885	1019.69663499	1089.74917065	120.55934163	-70.02052429	81.92718249
36.54000000	1638.13452955	1946.43258529	1491.71478172	1193.28892798	1276.70264225	1018.51939117	1089.41720637	118.51698998	-71.47530410	87.62452117
36.55000000	1637.09217190	1941.74305992	1481.27014225	1186.76550190	1272.15267591	1016.93176352	1089.42613844	116.47371940	-72.71957306	93.80872690
